<svg id="Layer_1" data-name="Layer 1" xmlns="http://www.w3.org/2000/svg" xmlns:xlink="http://www.w3.org/1999/xlink" viewBox="0 0 596.8 204.28"><title>nogeeks</title><path class="cls-1" style="fill:#ff3399" d="M615.48,96.81c-5.77-2.09-13.42-4.67-22.48-7.2-44.52-12.46-80.81-12-102.13-11.6,0,0-48.26.95-94.41,12.15-2.57.63-12.21,2.8-31.47,7.18-8.86,2-13.15,3-19,3.86A170.28,170.28,0,0,1,320,103.13a170.28,170.28,0,0,1-25.95-1.93c-5.89-.89-10.18-1.85-19-3.86-19.26-4.38-28.9-6.55-31.47-7.18C197.39,79,149.13,78,149.13,78c-21.32-.42-57.61-.86-102.13,11.6-9.06,2.53-16.71,5.11-22.48,7.2A4.44,4.44,0,0,0,21.6,101v30a6.59,6.59,0,0,0,2.16,4.93,31,31,0,0,1,3.38,3.66,47.28,47.28,0,0,1,9.27,20.33c8.63,43.36,20.71,67.35,20.71,67.35,4.42,9,13.85,24.88,32,36.53,11.78,7.56,22.25,10.15,33.73,13s33.08,7.93,60.9,3.87c11.54-1.69,36.53-5.63,61.47-24a122.15,122.15,0,0,0,15-13.05,124.21,124.21,0,0,0,29.18-49.11l14.9-46.6c1.24-3.51,2.87-7.89,7.17-10.49a19.95,19.95,0,0,1,17.12,0c4.3,2.6,5.93,7,7.17,10.49l14.9,46.6a124.21,124.21,0,0,0,29.18,49.11,122.15,122.15,0,0,0,15,13.05c24.94,18.39,49.93,22.33,61.47,24,27.82,4.06,49.44-1,60.9-3.87s22-5.41,33.73-13c18.12-11.65,27.55-27.54,32-36.53,0,0,12.08-24,20.71-67.35a47.28,47.28,0,0,1,9.27-20.33,31,31,0,0,1,3.38-3.66A6.59,6.59,0,0,0,618.4,131V101A4.44,4.44,0,0,0,615.48,96.81ZM276.66,149.54c-1.72,22.13-5.84,74.91-46.93,100.61a90.86,90.86,0,0,1-17.11,8.15c-38.14,14.8-95,17-123.67-14.13-8.67-9.42-12.79-19.72-16-27.74-7.33-18.31-8.26-34.93-9.38-54.92-.49-8.67-.72-13.1,0-17.94.79-5.41,3.76-25.57,20.7-36.44a40.64,40.64,0,0,1,10-4.62c2.79-.86,11.1-1.87,14-2.15,17.81-1.75,94.3-8.18,134.18,8.4,9.19,3.82,28,11.65,33.13,28.28A32.31,32.31,0,0,1,276.66,149.54Zm299.78,12c-1.12,20-2.05,36.61-9.38,54.92-3.22,8-7.34,18.32-16,27.74-28.71,31.14-85.53,28.93-123.67,14.13a90.86,90.86,0,0,1-17.11-8.15c-41.09-25.7-45.21-78.48-46.93-100.61a32.31,32.31,0,0,1,1.1-12.5c5.11-16.63,23.94-24.46,33.13-28.28,39.88-16.58,116.37-10.15,134.18-8.4,2.9.28,11.21,1.29,14,2.15a40.64,40.64,0,0,1,10,4.62c16.94,10.87,19.91,31,20.7,36.44C577.16,148.41,576.93,152.84,576.44,161.51Z" transform="translate(-21.6 -77.86)"/><path class="cls-2" style="fill:#ff3399" d="M176.28,215c-.31-.66-.56-1.32-.85-2-2.93,2.73-5.81,5.43-8.8,8.23L157.84,213l-.13.19a34.59,34.59,0,0,1-10.05,14.35.92.92,0,0,0-.15.83c.61,1.2,1.22,2.37,1.91,3.51a163.59,163.59,0,0,0,17,22.89,3.28,3.28,0,0,0,.26.22c.2-.23.37-.39.52-.56,3.34-4.14,6.74-8.27,10-12.5a91.46,91.46,0,0,0,8.51-13.25c.23-.46.45-.82-.12-1.29A33.44,33.44,0,0,1,176.28,215Z" transform="translate(-21.6 -77.86)"/><path class="cls-3" style="fill:#ff3399" d="M146,190.11a53.74,53.74,0,0,0,2.65,4.83,84.37,84.37,0,0,0,10.77,13.28c2.31,2.39,4.7,4.7,7.26,7.24a8.52,8.52,0,0,1,.73-.9A138.68,138.68,0,0,0,179.38,202a53.72,53.72,0,0,0,7.88-11.83,1,1,0,0,0-.18-1.19c-1.87-2.53-3.71-5.06-5.49-7.64a33.85,33.85,0,0,1-1.77-3.26c-2.16,2.21-4.22,4.44-6.42,6.55s-4.57,4.08-7,6.26c-4.29-4.19-8.67-8.43-13-12.69a48.61,48.61,0,0,1-7.22,11A1,1,0,0,0,146,190.11Z" transform="translate(-21.6 -77.86)"/><path class="cls-4" style="fill:#ff3399" d="M211.53,170.91a40.81,40.81,0,0,1-15.63-1.8c-2.39-.76-4.68-1.71-7.1-2.57l-.11.13c-1.73,2.35-3.49,4.72-5.2,7.11a1.15,1.15,0,0,0-.11,1,38.79,38.79,0,0,0,12.78,16.71,33.86,33.86,0,0,0,20.19,6.72c.75,0,1.12-.21,1.21-.9a64.21,64.21,0,0,0,.8-7,38,38,0,0,0-5.21-18.57A1.4,1.4,0,0,0,211.53,170.91Z" transform="translate(-21.6 -77.86)"/><path class="cls-5" style="fill:#ff3399" d="M149.16,176.48a3.22,3.22,0,0,0-.5-4.21,65.73,65.73,0,0,1-4.33-5.83,45.68,45.68,0,0,1-23.13,4.48,1.17,1.17,0,0,0-.88.49c-.76,1.43-1.56,2.85-2.18,4.31-3,6.94-4.15,14.07-2.49,21.47.17.74.51,1,1.32,1a34.22,34.22,0,0,0,17.25-4.81C141.16,189.2,145.8,183.3,149.16,176.48Z" transform="translate(-21.6 -77.86)"/><path class="cls-6" style="fill:#ff3399" d="M153.79,208.65c-1.58-1.89-3.25-3.72-4.82-5.63a58.77,58.77,0,0,1-6.69-10.1,8.5,8.5,0,0,1-.73.56,37.3,37.3,0,0,1-13.2,7.06A1.33,1.33,0,0,0,127.2,202a45.35,45.35,0,0,0,.73,11.15,34.18,34.18,0,0,0,7.57,15.73,1.06,1.06,0,0,0,1.5.31,30.12,30.12,0,0,0,17.05-19.52A1.25,1.25,0,0,0,153.79,208.65Z" transform="translate(-21.6 -77.86)"/><path class="cls-7" style="fill:#ff3399" d="M205.27,200.68A38.41,38.41,0,0,1,193,194.55c-.66-.53-1.33-1-2-1.59a1.68,1.68,0,0,0-.23.32,66.72,66.72,0,0,1-10.42,14.29,3,3,0,0,0-.73,3.63,30.63,30.63,0,0,0,16.56,18c.67.31,1.12.33,1.57-.31,1.23-1.74,2.63-3.4,3.68-5.24,4-7,5.13-14.47,4.53-22.24A1.13,1.13,0,0,0,205.27,200.68Z" transform="translate(-21.6 -77.86)"/><path class="cls-8" style="fill:#ff3399" d="M109.35,162.71c-.16-.1-.13-.06,0,0Z" transform="translate(-21.6 -77.86)"/><path class="cls-9" style="fill:#ff3399" d="M121.82,166.75a38.61,38.61,0,0,0,18.12-3,49,49,0,0,0,6.25-3.07,158.33,158.33,0,0,0,20.54,24.36c6.82-6.4,16.17-16.24,21.22-23.89a43.27,43.27,0,0,0,18.38,5.6c6.77.6,11.24-.88,17.07-4,.58-.31.75-.63.46-1.19-.92-1.83-18.35-28.63-53.39-30.55l.69-16.13a4.56,4.56,0,0,0-9.08,0l.69,16.09c-36.5,1.63-50.88,27.14-52.58,31.64-.13.35-.61.2-.84.11l.05,0C113.63,165,116.94,166.37,121.82,166.75Z" transform="translate(-21.6 -77.86)"/><path class="cls-10" style="fill:#ff3399" d="M483.28,215c-.31-.66-.56-1.32-.85-2-2.93,2.73-5.81,5.43-8.8,8.23L464.84,213l-.13.19a34.59,34.59,0,0,1-10,14.35.92.92,0,0,0-.15.83c.61,1.2,1.22,2.37,1.91,3.51a163.59,163.59,0,0,0,17,22.89,3.28,3.28,0,0,0,.26.22c.2-.23.37-.39.52-.56,3.34-4.14,6.74-8.27,10-12.5a91.46,91.46,0,0,0,8.51-13.25c.23-.46.45-.82-.12-1.29A33.44,33.44,0,0,1,483.28,215Z" transform="translate(-21.6 -77.86)"/><path class="cls-11" style="fill:#ff3399" d="M453,190.11a53.74,53.74,0,0,0,2.65,4.83,84.37,84.37,0,0,0,10.77,13.28c2.31,2.39,4.7,4.7,7.26,7.24a8.52,8.52,0,0,1,.73-.9A138.68,138.68,0,0,0,486.38,202a53.72,53.72,0,0,0,7.88-11.83,1,1,0,0,0-.18-1.19c-1.87-2.53-3.71-5.06-5.49-7.64a33.85,33.85,0,0,1-1.77-3.26c-2.16,2.21-4.22,4.44-6.42,6.55s-4.57,4.08-7,6.26c-4.29-4.19-8.67-8.43-13-12.69a48.61,48.61,0,0,1-7.22,11A1,1,0,0,0,453,190.11Z" transform="translate(-21.6 -77.86)"/><path class="cls-12" style="fill:#ff3399" d="M518.53,170.91a40.81,40.81,0,0,1-15.63-1.8c-2.39-.76-4.68-1.71-7.1-2.57l-.11.13c-1.73,2.35-3.49,4.72-5.2,7.11a1.15,1.15,0,0,0-.11,1,38.79,38.79,0,0,0,12.78,16.71,33.86,33.86,0,0,0,20.19,6.72c.75,0,1.12-.21,1.21-.9a64.21,64.21,0,0,0,.8-7,38,38,0,0,0-5.21-18.57A1.4,1.4,0,0,0,518.53,170.91Z" transform="translate(-21.6 -77.86)"/><path class="cls-13" style="fill:#ff3399" d="M456.16,176.48a3.22,3.22,0,0,0-.5-4.21,65.73,65.73,0,0,1-4.33-5.83,45.68,45.68,0,0,1-23.13,4.48,1.17,1.17,0,0,0-.88.49c-.76,1.43-1.56,2.85-2.18,4.31-3,6.94-4.15,14.07-2.49,21.47.17.74.51,1,1.32,1a34.22,34.22,0,0,0,17.25-4.81C448.16,189.2,452.8,183.3,456.16,176.48Z" transform="translate(-21.6 -77.86)"/><path class="cls-14" style="fill:#ff3399" d="M460.79,208.65c-1.58-1.89-3.25-3.72-4.82-5.63a58.77,58.77,0,0,1-6.69-10.1,8.5,8.5,0,0,1-.73.56,37.3,37.3,0,0,1-13.2,7.06A1.33,1.33,0,0,0,434.2,202a45.35,45.35,0,0,0,.73,11.15,34.18,34.18,0,0,0,7.57,15.73,1.06,1.06,0,0,0,1.5.31,30.12,30.12,0,0,0,17.05-19.52A1.25,1.25,0,0,0,460.79,208.65Z" transform="translate(-21.6 -77.86)"/><path class="cls-15" style="fill:#ff3399" d="M512.27,200.68A38.41,38.41,0,0,1,500,194.55c-.66-.53-1.33-1-2-1.59a1.68,1.68,0,0,0-.23.32,66.72,66.72,0,0,1-10.42,14.29,3,3,0,0,0-.73,3.63,30.63,30.63,0,0,0,16.56,18c.67.31,1.12.33,1.57-.31,1.23-1.74,2.63-3.4,3.68-5.24,4-7,5.13-14.47,4.53-22.24A1.13,1.13,0,0,0,512.27,200.68Z" transform="translate(-21.6 -77.86)"/><path class="cls-16" style="fill:#ff3399" d="M416.35,162.71c-.16-.1-.13-.06,0,0Z" transform="translate(-21.6 -77.86)"/><path class="cls-17" style="fill:#ff3399" d="M428.82,166.75a38.61,38.61,0,0,0,18.12-3,49,49,0,0,0,6.25-3.07,158.33,158.33,0,0,0,20.54,24.36c6.82-6.4,16.17-16.24,21.22-23.89a43.27,43.27,0,0,0,18.38,5.6c6.77.6,11.24-.88,17.07-4,.58-.31.75-.63.46-1.19-.92-1.83-18.35-28.63-53.39-30.55l.69-16.13a4.56,4.56,0,0,0-9.08,0l.69,16.09c-36.5,1.63-50.88,27.14-52.58,31.64-.13.35-.61.2-.84.11l0,0C420.63,165,423.94,166.37,428.82,166.75Z" transform="translate(-21.6 -77.86)"/></svg>